<svg width="32" height="32" xmlns="http://www.w3.org/2000/svg">
 <g>
  <title>Layer 1</title>
  <path stroke="null" d="m9.65608,10.83556l-3.09073,0l0,11.3382l-2.27259,0l0,-11.3382l-3.09073,0l0,-2.00086l8.36314,0l0,2.00086l0.0909,0zm6.99959,7.89227c0,-0.55579 -0.18181,-0.88927 -0.45452,-1.22275c-0.27271,-0.33348 -0.81813,-0.55579 -1.54536,-0.88927c-1.27265,-0.44464 -2.27259,-1.00043 -2.99982,-1.66738c-0.63633,-0.66695 -0.99994,-1.44506 -0.99994,-2.55665c0,-1.11159 0.36361,-2.00086 1.18175,-2.66781c0.72723,-0.66695 1.72717,-1.00043 2.90892,-1.00043c1.18175,0 2.18169,0.44464 2.90892,1.22275c0.72723,0.77811 1.09084,1.77854 1.09084,2.89013l-2.09079,0c0,-0.66695 -0.18181,-1.11159 -0.54542,-1.55622c-0.36361,-0.33348 -0.81813,-0.55579 -1.45446,-0.55579c-0.54542,0 -0.99994,0.11116 -1.36356,0.44464c-0.36361,0.33348 -0.45452,0.77811 -0.45452,1.22275c0,0.44464 0.18181,0.77811 0.54542,1.11159c0.36361,0.33348 0.90904,0.55579 1.81807,0.88927c1.18175,0.44464 2.09079,1.00043 2.72711,1.66738c0.63633,0.66695 0.90904,1.55622 0.90904,2.66781s-0.36361,2.11202 -1.09084,2.66781c-0.72723,0.66695 -1.72717,1.00043 -2.90892,1.00043c-1.18175,0 -2.27259,-0.33348 -3.09073,-1.11159s-1.36356,-1.77854 -1.27265,-3.2236l2.18169,0c0,0.77811 0.18181,1.33391 0.63633,1.77854c0.36361,0.33348 0.99994,0.55579 1.63627,0.55579s1.09084,-0.11116 1.36356,-0.44464c0.18181,-0.33348 0.36361,-0.77811 0.36361,-1.22275z" fill="#C48157" id="svg_1"/>
  <text font-weight="bold" transform="matrix(0.70219 0 0 0.738625 3.97996 8.47541)" stroke="#000" xml:space="preserve" text-anchor="start" font-family="'Podkova'" font-size="29" id="svg_2" y="17.73713" x="20.76613" stroke-width="0" fill="#187bdd">R</text>
 </g>

</svg>